<?xml version="1.0" encoding="UTF-8" standalone="no"?>
<svg
   version="1.0"
   width="400pt"
   height="400pt"
   viewBox="0 0 400 400"
   preserveAspectRatio="xMidYMid"
   id="svg12"
   xmlns="http://www.w3.org/2000/svg"
   xmlns:svg="http://www.w3.org/2000/svg">
  <defs
     id="defs16" />
  <metadata
     id="metadata2">
Created by potrace 1.10, written by Peter Selinger 2001-2011
</metadata>
  <g
     transform="matrix(0.1,0,0,-0.1,-15.968064,769.66067)"
     fill="#000000"
     stroke="none"
     id="g10">
    <path
       d="m 1547,6103 c -3,-1128 2,-1044 -77,-1208 -62,-128 -155,-211 -289,-257 -56,-19 -86,-23 -196,-23 -116,0 -140,4 -219,29 -104,34 -216,105 -274,172 l -39,46 -86,-93 c -48,-51 -87,-96 -87,-100 0,-16 98,-113 155,-155 171,-122 367,-170 620,-152 382,27 630,233 734,608 l 26,95 3,1023 3,1022 h -135 -135 z"
       id="path4" />
    <path
       d="m 1900,7073 c 13,-21 64,-112 115,-203 50,-91 104,-187 120,-215 24,-44 177,-280 460,-712 166,-254 277,-423 390,-598 65,-99 146,-223 180,-275 35,-52 140,-214 235,-360 94,-146 182,-280 193,-297 l 22,-33 h 128 c 70,0 127,3 127,7 0,3 -57,103 -126,222 -111,190 -220,364 -497,791 -143,220 -224,346 -338,523 -63,97 -134,209 -159,247 -107,165 -452,700 -525,815 l -80,124 -133,1 h -134 z"
       id="path6" />
    <path
       d="m 3620,6039 c 0,-1019 1,-1072 18,-1097 10,-15 67,-112 127,-217 59,-104 112,-194 117,-199 4,-6 8,574 8,1287 v 1297 h -135 -135 z"
       id="path8" />
  </g>
</svg>
